<svg width="84" height="67" viewBox="0 0 84 67" fill="none" xmlns="http://www.w3.org/2000/svg">
<path d="M0 67V14.2278H14.2813V62.6573C14.2813 65.0557 12.3297 67 9.92225 67H0Z" fill="#171D54"/>
<path d="M14.2813 26.3861H28.2283C30.6357 26.3861 32.5873 28.3304 32.5873 30.7288V40.6139H14.2813V26.3861Z" fill="#171D54"/>
<path d="M14.2813 0H43.1035V14.2278L14.2813 14.2278L14.2813 0Z" fill="#171D54"/>
<path d="M0 4.34272C0 1.9443 1.95161 0 4.35905 0H14.2813L14.2813 14.2278H0V4.34272Z" fill="#171D54"/>
<path d="M32.068 57.1149C32.068 54.7165 34.0196 52.7722 36.427 52.7722H50.374V67H32.068V57.1149Z" fill="#171D54"/>
<path d="M74.1512 57.1881C67.8451 63.4705 59.2922 67 50.374 67V52.7722C55.5046 52.7722 60.4249 50.7417 64.0528 47.1275C67.6806 43.5133 69.7187 38.6113 69.7187 33.5C69.7187 28.3887 67.6806 23.4867 64.0528 19.8725C60.425 16.2583 55.5046 14.2278 50.374 14.2278L50.374 0C59.2922 1.72993e-06 67.8451 3.52946 74.1512 9.81193C80.4573 16.0944 84 24.6153 84 33.5C84 42.3848 80.4573 50.9056 74.1512 57.1881Z" fill="#171D54"/>
</svg>
